<?xml version="1.0" encoding="UTF-8" standalone="no"?>
<!-- Created with Inkscape (http://www.inkscape.org/) -->

<svg
   xmlns:dc="http://purl.org/dc/elements/1.1/"
   xmlns:cc="http://creativecommons.org/ns#"
   xmlns:rdf="http://www.w3.org/1999/02/22-rdf-syntax-ns#"
   xmlns:svg="http://www.w3.org/2000/svg"
   xmlns="http://www.w3.org/2000/svg"
   xmlns:sodipodi="http://sodipodi.sourceforge.net/DTD/sodipodi-0.dtd"
   xmlns:inkscape="http://www.inkscape.org/namespaces/inkscape"
   width="123.48051mm"
   height="122.2442mm"
   viewBox="0 0 123.48052 122.2442"
   version="1.1"
   id="svg8"
   inkscape:version="0.92.2 5c3e80d, 2017-08-06"
   sodipodi:docname="cg-logo.svg">
  <defs
     id="defs2" />
  <sodipodi:namedview
     id="base"
     pagecolor="#ffffff"
     bordercolor="#666666"
     borderopacity="1.0"
     inkscape:pageopacity="0.0"
     inkscape:pageshadow="2"
     inkscape:zoom="1.4"
     inkscape:cx="519.34232"
     inkscape:cy="328.06864"
     inkscape:document-units="mm"
     inkscape:current-layer="g3801"
     showgrid="false"
     inkscape:window-width="5158"
     inkscape:window-height="2133"
     inkscape:window-x="2560"
     inkscape:window-y="25"
     inkscape:window-maximized="0" />
  <metadata
     id="metadata5">
    <rdf:RDF>
      <cc:Work
         rdf:about="">
        <dc:format>image/svg+xml</dc:format>
        <dc:type
           rdf:resource="http://purl.org/dc/dcmitype/StillImage" />
        <dc:title></dc:title>
      </cc:Work>
    </rdf:RDF>
  </metadata>
  <g
     inkscape:label="Layer 1"
     inkscape:groupmode="layer"
     id="layer1"
     transform="translate(-43.132165,-70.069559)">
    <g
       id="g3801"
       transform="translate(81.453869,-109.99107)">
      <path
         style="display:inline;fill:none;stroke-width:0.32000002"
         d="M 212.96875,-14.644531 C 133.81766,-13.403032 54.765761,9.9395417 -11.21875,53.941406 -20.024225,116.76369 -12.558048,181.96094 6.4082031,242.37109 33.823626,326.97026 96.075871,400.58313 178.6582,435.52539 c 20.69116,10.70918 45.45739,17.86375 66.79102,4.79883 92.96479,-36.16411 167.38058,-117.65396 190.2168,-215.375 14.8559,-54.9086 18.29857,-112.35395 14.97656,-168.970704 C 382.82988,7.0210857 295.8342,-15.090931 212.96875,-14.644531 Z m 9.93359,30.423828 C 292.0817,16.176861 362.9055,33.51939 420.62109,72.107422 424.70424,125.27052 418.80705,179.63941 403.11328,230.69531 377.65992,317.97492 307.31397,389.20063 220.66797,416.45117 182.23989,408.62853 145.30355,386.86149 115.11914,361.16992 34.035383,290.26886 13.285093,176.2026 15.4375,73.400391 72.793641,36.571502 141.27935,18.443564 209.09375,15.923828 c 4.59297,-0.122849 9.19664,-0.171035 13.80859,-0.144531 z"
         transform="matrix(0.26458333,0,0,0.26458333,-34.381203,183.93708)"
         id="path4003"
         inkscape:connector-curvature="0" />
      <path
         style="display:inline;fill:none;stroke-width:0.08466667"
         d="m 27.216305,286.33905 c -0.031,-0.031 -0.0565,-4.05021 -0.0565,-8.93148 v -8.87503 l 0.75029,-0.37682 c 5.41127,-2.71771 10.20513,-6.97177 14.24303,-12.63923 1.5875,-2.22817 3.44626,-5.38735 3.28446,-5.58231 -0.13895,-0.16743 -2.12957,-0.91738 -3.43495,-1.2941 -3.78373,-1.09192 -7.81844,-1.62639 -12.42983,-1.64655 l -2.37066,-0.0104 -0.0216,-7.92828 c -0.0175,-6.43241 -8.5e-4,-7.93622 0.0882,-7.9704 0.16422,-0.063 3.44943,0.0883 5.14041,0.23682 10.36556,0.91021 22.18969,4.18748 31.22083,8.65341 1.38942,0.68708 1.62983,0.83385 1.62983,0.99501 0,0.10398 -0.22585,0.90899 -0.50188,1.78891 -3.35668,10.69996 -8.62683,20.32965 -15.28621,27.93119 -6.02305,6.87519 -13.38052,12.2089 -21.07676,15.27936 -1.18811,0.47399 -1.10169,0.44688 -1.1787,0.36986 z"
         id="path3898"
         inkscape:connector-curvature="0" />
      <path
         style="display:inline;fill:none;stroke-width:0.08466667"
         d="m 66.741525,229.64741 c -2.79576,-1.41439 -6.30354,-2.8247 -11.21833,-4.51035 -1.18745,-0.40727 -2.20508,-0.78295 -2.26139,-0.83486 -0.08,-0.0737 -0.0758,-0.39039 0.0191,-1.44903 0.0668,-0.74507 0.16818,-2.56484 0.22524,-4.04395 0.09,-2.33332 0.0875,-2.70551 -0.0191,-2.81189 -0.14647,-0.14614 -2.84178,-1.13694 -4.56786,-1.67914 -6.43395,-2.02103 -12.88622,-3.26492 -19.98134,-3.85206 l -1.73566,-0.14363 v -7.45067 -7.45066 l 1.09675,0.0228 c 1.34676,0.0279 4.58087,0.35145 7.0017,0.70036 9.88321,1.42448 19.6651,4.41875 29.78988,9.11882 3.10092,1.43949 4.22533,2.03052 4.26894,2.24391 0.0977,0.47792 0.12985,5.01849 0.0527,7.42982 -0.12672,3.9585 -0.31926,6.47869 -0.76784,10.05046 -0.27563,2.19465 -0.73333,5.02949 -0.82616,5.11701 -0.0333,0.0314 -0.5178,-0.17419 -1.0766,-0.45689 z"
         id="path3794"
         inkscape:connector-curvature="0" />
      <path
         style="display:inline;fill:none;stroke-width:0.08466667"
         d="m 17.973525,285.92458 c -1.59795,-0.65076 -4.64799,-2.14238 -6.12985,-2.99781 -12.57551046,-7.25941 -22.58742,-19.82431 -28.53924,-35.8166 -3.20478,-8.61115 -5.10478,-17.7275 -5.80551,-27.85534 -0.15703,-2.26958 -0.25677,-8.52215 -0.16787,-10.5235 l 0.0632,-1.42183 0.67294,-0.33835 c 1.16048,-0.58347 4.10395,-1.92906 5.95505,-2.72231 11.1855295,-4.7933 21.9319095,-7.69228 32.385,-8.73629 2.49623,-0.24931 2.97322,-0.27857 3.1115,-0.19086 0.0834,0.0529 0.10555,1.63468 0.10453,7.44931 -8.4e-4,4.06019 -0.0293,7.42475 -0.0635,7.47679 -0.0368,0.056 -0.63209,0.13555 -1.4592,0.19494 -6.53257,0.46902 -12.8566805,1.62069 -18.79600046,3.42289 -2.14837004,0.65189 -5.94606004,1.99497 -6.12070004,2.16462 -0.11157,0.10839 0.32594,4.38316 0.75464,7.37326 2.12621,14.82995 6.93159004,26.67961 14.29021,35.23839 1.16181,1.35129 3.4806305,3.67919 4.7071805,4.7256 1.68423,1.43687 3.99581,3.10146 5.86295,4.22199 0.48265,0.28964 0.75616,0.50888 0.78524,0.62941 0.0246,0.10172 0.0342,4.24208 0.0214,9.20078 -0.0205,7.93657 -0.0384,9.01829 -0.15024,9.03622 -0.0698,0.0112 -0.7366,-0.22789 -1.48167,-0.53131 z"
         id="path3792"
         inkscape:connector-curvature="0"
         sodipodi:nodetypes="cccscccccscccscscscccccc" />
    </g>
  </g>
</svg>
